<?xml version="1.0" encoding="UTF-8" standalone="no"?>
<!-- Created with Inkscape (http://www.inkscape.org/) -->

<svg
   width="210mm"
   height="297mm"
   viewBox="0 0 210 297"
   version="1.1"
   id="svg5"
   inkscape:version="1.2.2 (b0a8486541, 2022-12-01)"
   sodipodi:docname="LogoEmpresarialAlejandroPedreño.svg"
   xml:space="preserve"
   xmlns:inkscape="http://www.inkscape.org/namespaces/inkscape"
   xmlns:sodipodi="http://sodipodi.sourceforge.net/DTD/sodipodi-0.dtd"
   xmlns:xlink="http://www.w3.org/1999/xlink"
   xmlns="http://www.w3.org/2000/svg"
   xmlns:svg="http://www.w3.org/2000/svg"><sodipodi:namedview
     id="namedview7"
     pagecolor="#ffffff"
     bordercolor="#000000"
     borderopacity="0.25"
     inkscape:showpageshadow="2"
     inkscape:pageopacity="0.0"
     inkscape:pagecheckerboard="0"
     inkscape:deskcolor="#d1d1d1"
     inkscape:document-units="mm"
     showgrid="false"
     inkscape:zoom="1.4142136"
     inkscape:cx="263.04372"
     inkscape:cy="488.61079"
     inkscape:window-width="1919"
     inkscape:window-height="1013"
     inkscape:window-x="1"
     inkscape:window-y="0"
     inkscape:window-maximized="1"
     inkscape:current-layer="g1474"
     showguides="true" /><defs
     id="defs2"><linearGradient
       id="linearGradient9"
       inkscape:collect="always"><stop
         style="stop-color:#00ee00;stop-opacity:1;"
         offset="0"
         id="stop10" /><stop
         style="stop-color:#008a00;stop-opacity:1;"
         offset="1"
         id="stop11" /></linearGradient><linearGradient
       id="linearGradient7"
       inkscape:collect="always"><stop
         style="stop-color:#a70000;stop-opacity:1;"
         offset="0"
         id="stop8" /><stop
         style="stop-color:#660000;stop-opacity:1;"
         offset="1"
         id="stop9" /></linearGradient><linearGradient
       id="linearGradient5"
       inkscape:collect="always"><stop
         style="stop-color:#62ff62;stop-opacity:1;"
         offset="0"
         id="stop6" /><stop
         style="stop-color:#008800;stop-opacity:1;"
         offset="1"
         id="stop7" /></linearGradient><linearGradient
       id="linearGradient3"
       inkscape:collect="always"><stop
         style="stop-color:#ff1313;stop-opacity:1;"
         offset="0"
         id="stop4" /><stop
         style="stop-color:#660000;stop-opacity:1;"
         offset="1"
         id="stop5" /></linearGradient><linearGradient
       id="linearGradient1"
       inkscape:collect="always"><stop
         style="stop-color:#b8b8b8;stop-opacity:1;"
         offset="0"
         id="stop3" /><stop
         style="stop-color:#9c9c9c;stop-opacity:1;"
         offset="0.41584158"
         id="stop1" /><stop
         style="stop-color:#666666;stop-opacity:1;"
         offset="1"
         id="stop2" /></linearGradient><rect
       x="94.542175"
       y="338.57461"
       width="139.9613"
       height="103.68201"
       id="rect3075" /><rect
       x="84.265514"
       y="227.17336"
       width="179.10792"
       height="76.640282"
       id="rect2131" /><rect
       x="136.98498"
       y="430.35767"
       width="111.02953"
       height="82.225503"
       id="rect2143" /><radialGradient
       inkscape:collect="always"
       xlink:href="#linearGradient35"
       id="radialGradient36"
       cx="110.60773"
       cy="46.514217"
       fx="110.60773"
       fy="46.514217"
       r="33.864082"
       gradientTransform="matrix(1,0,0,0.36083684,-2.9105015,57.774325)"
       gradientUnits="userSpaceOnUse" /><linearGradient
       id="linearGradient35"
       inkscape:collect="always"><stop
         style="stop-color:#2929ff;stop-opacity:1;"
         offset="0"
         id="stop35" /><stop
         style="stop-color:#000068;stop-opacity:1;"
         offset="1"
         id="stop36" /></linearGradient><radialGradient
       inkscape:collect="always"
       xlink:href="#linearGradient1"
       id="radialGradient2"
       cx="121.16"
       cy="91.182121"
       fx="121.16"
       fy="91.182121"
       r="45"
       gradientUnits="userSpaceOnUse"
       gradientTransform="translate(-2.9104166,3.4395832)" /><radialGradient
       inkscape:collect="always"
       xlink:href="#linearGradient3"
       id="radialGradient5"
       cx="152.01025"
       cy="129.26643"
       fx="152.01025"
       fy="129.26643"
       r="20.00007"
       gradientTransform="matrix(1,0,0,1.5538665,-2.9104166,-63.888807)"
       gradientUnits="userSpaceOnUse" /><radialGradient
       inkscape:collect="always"
       xlink:href="#linearGradient5"
       id="radialGradient7"
       cx="71.443985"
       cy="128.33485"
       fx="71.443985"
       fy="128.33485"
       r="20.000072"
       gradientTransform="matrix(1,0,0,1.553866,-2.9104166,-63.972962)"
       gradientUnits="userSpaceOnUse" /><radialGradient
       inkscape:collect="always"
       xlink:href="#linearGradient7"
       id="radialGradient9"
       cx="112.27914"
       cy="146.8336"
       fx="112.27914"
       fy="146.8336"
       r="12.076126"
       gradientTransform="matrix(1,0,0,0.4603372,0,78.363318)"
       gradientUnits="userSpaceOnUse" /><radialGradient
       inkscape:collect="always"
       xlink:href="#linearGradient9"
       id="radialGradient11"
       cx="102.61032"
       cy="135.91068"
       fx="102.61032"
       fy="135.91068"
       r="12.603604"
       gradientTransform="matrix(1,0,0,0.75785043,0,34.644297)"
       gradientUnits="userSpaceOnUse" /></defs><g
     inkscape:groupmode="layer"
     id="layer9"
     inkscape:label="Contorno"
     transform="matrix(1.0111111,0,0,1.0111111,-1.7291157,-1.7532249)"
     style="display:inline" /><g
     inkscape:label="Círculo externo"
     inkscape:groupmode="layer"
     id="layer1"
     style="display:inline" /><g
     inkscape:groupmode="layer"
     id="layer10"
     inkscape:label="Recortes"
     style="display:inline" /><g
     inkscape:groupmode="layer"
     id="layer2"
     inkscape:label="Azul"
     transform="translate(9.3246373,7.4765138)"
     style="display:inline" /><g
     inkscape:groupmode="layer"
     id="layer8"
     inkscape:label="Manos" /><g
     inkscape:groupmode="layer"
     id="layer12"
     inkscape:label="Triángulos" /><g
     inkscape:groupmode="layer"
     id="layer11"
     inkscape:label="VI"
     style="display:inline" /><g
     inkscape:groupmode="layer"
     id="layer6"
     inkscape:label="C3"
     style="display:inline" /><path
     id="path1045"
     style="display:inline;stroke-width:0.280811"
     d="m 155.39499,116.22992 a 47.684898,47.684898 0 0 1 -47.6849,47.6849 47.684898,47.684898 0 0 1 -47.684898,-47.6849 47.684898,47.684898 0 0 1 47.684898,-47.684899 47.684898,47.684898 0 0 1 47.6849,47.684899 z" /><path
     id="path440"
     style="display:inline;fill:url(#radialGradient2);stroke-width:0.265"
     d="m 152.63757,116.23042 a 45,45 0 0 1 -45,45 45,45 0 0 1 -44.999997,-45 45,45 0 0 1 44.999997,-44.999997 45,45 0 0 1 45,44.999997 z" /><path
     id="path1582"
     style="display:inline;fill:url(#radialGradient7);stroke-width:0.0471111;stroke-dasharray:none"
     d="m 74.50863,94.074878 a 40,40 0 0 0 -6.798551,22.155232 40,40 0 0 0 21.097937,35.14514 l 5.15214,-8.59637 A 30,30 0 0 1 77.710502,116.22959 30,30 0 0 1 83.984537,97.990918 l -9.121407,5.342822 z" /><path
     id="path1582-8"
     style="display:inline;fill:url(#radialGradient5);stroke-width:0.0471111;stroke-dasharray:none"
     d="m 140.87977,93.922949 -0.3545,9.258871 -9.12141,-5.342831 a 30,30 0 0 1 6.27404,18.238681 30,30 0 0 1 -17.43305,27.23296 l 5.14284,8.58139 a 40,40 0 0 0 22.29063,-35.81384 40,40 0 0 0 -6.79855,-22.155231 z m -9.18549,3.789949 -0.29404,0.12144 a 30,30 0 0 1 5.2e-4,5.17e-4 z" /><path
     id="path1582-1-6"
     style="display:inline;fill:url(#radialGradient36);stroke-width:0.047;stroke-dasharray:none"
     d="M 107.71022,76.229455 A 40,40 0 0 0 74.506047,94.048006 L 83.987639,97.9873 A 30,30 0 0 1 107.71074,86.229362 30,30 0 0 1 131.40386,97.84209 l 0.001,-5.17e-4 v -5.17e-4 l 9.46454,-3.917073 A 40,40 0 0 0 107.71022,76.229455 Z M 74.506047,94.048006 h -5.17e-4 a 40,40 0 0 0 -10e-4,0.0016 l 0.03617,0.01499 z m -0.936377,1.353406 a 40,40 0 0 0 -0.001,0.001 l 0.129708,0.05271 c -0.0429,-0.01803 -0.08579,-0.03568 -0.128674,-0.05374 z m 8.054805,5.251358 c -0.007,0.005 -0.01304,0.01 -0.01964,0.0145 l -5.16e-4,0.001 a 40,40 0 0 1 0.02015,-0.0155 z" /><g
     id="g909"
     transform="translate(-2.910732,3.4395832)"
     style="display:inline;fill:#800000"><g
       id="g3910"
       transform="matrix(0.48716094,0,0,0.48716094,79.641901,46.401797)"
       style="display:inline;fill:#800000"><path
         id="path3906"
         style="display:inline;fill:#800000;stroke-width:0.253043"
         transform="rotate(127.7127)"
         d="m 149.3893,-174.21828 h 5.90986 c 1.76738,0 3.19021,1.42284 3.19021,3.19022 0,1.76738 -1.42283,3.19022 -3.19021,3.19022 h -5.90986 c -1.76738,0 -3.19022,-1.42284 -3.19022,-3.19022 0,-1.76738 1.42284,-3.19022 3.19022,-3.19022 z" /><path
         id="path3903"
         style="display:inline;fill:#800000;stroke-width:0.253043"
         d="m 144.06508,-174.21828 h 5.90986 c 1.76738,0 3.19021,1.42284 3.19021,3.19022 0,1.76738 -1.42283,3.19022 -3.19021,3.19022 h -5.90986 c -1.76738,0 -3.19022,-1.42284 -3.19022,-3.19022 0,-1.76738 1.42284,-3.19022 3.19022,-3.19022 z"
         transform="rotate(127.7127)" /></g><path
       id="rect2362"
       style="display:inline;stroke-width:0.120087"
       transform="rotate(127.96428,2.8376062,6.014021)"
       d="m 58.314092,-161.14194 h 2.804651 c 0.838748,0 1.513986,0.67524 1.513986,1.51399 0,0.83875 -0.675238,1.51398 -1.513986,1.51398 h -2.804651 c -0.838748,0 -1.513986,-0.67523 -1.513986,-1.51398 0,-0.83875 0.675238,-1.51399 1.513986,-1.51399 z" /><g
       id="g3914"
       transform="matrix(0.45891471,0.01637805,-0.01637805,0.45891471,84.919129,51.093574)"
       style="display:inline;fill:#800000"><path
         id="rect2362-2"
         style="display:inline;stroke-width:0.264999"
         transform="rotate(125)"
         d="m 154.24689,-174.99863 h 6.1891 c 1.85088,0 3.34095,1.49007 3.34095,3.34095 0,1.85089 -1.49007,3.34095 -3.34095,3.34095 h -6.1891 c -1.85088,0 -3.34095,-1.49006 -3.34095,-3.34095 0,-1.85088 1.49007,-3.34095 3.34095,-3.34095 z" /><path
         id="rect2362-2-9"
         style="display:inline;stroke-width:0.264999"
         transform="rotate(125.14223)"
         d="m 156.39671,-175.39505 h 6.18909 c 1.85088,0 3.34095,1.49006 3.34095,3.34095 0,1.85089 -1.49007,3.34095 -3.34095,3.34095 h -6.18909 c -1.85089,0 -3.34095,-1.49006 -3.34095,-3.34095 0,-1.85089 1.49006,-3.34095 3.34095,-3.34095 z" /></g><path
       id="rect3894"
       style="display:inline;stroke-width:0.144316"
       transform="rotate(-142)"
       d="m -181.35293,-61.399754 c 0.70157,0 1.26637,0.564803 1.26637,1.266375 v 1.92844 c 0,0.701571 -0.5648,1.266374 -1.26637,1.266374 -0.70158,0 -1.26638,-0.564803 -1.26638,-1.266374 v -1.92844 c 0,-0.701572 0.5648,-1.266375 1.26638,-1.266375 z" /><path
       id="path4024"
       style="display:inline;fill:url(#radialGradient9);fill-opacity:1;stroke-width:0.134674;stroke-dasharray:none"
       d="m 113.16188,139.64884 c -1.85699,0.0478 -5.4302,1.31523 -7.91114,2.25516 -0.45985,0.20098 -3.99448,3.18921 -2.3859,4.70514 1.03978,0.77032 1.62695,0.33873 2.06809,0.1633 1.45826,-0.57142 2.41052,-1.7891 3.54035,-2.7802 l 4.45348,0.0718 c 3.77031,2.57568 6.38899,4.17003 10.25622,6.70295 0.96447,-0.3798 2.31012,-0.70639 3.41736,-1.21284 l -5.15317,-8.83254 c -2.06948,0.47574 -4.89823,-0.22885 -8.28529,-1.0728 z" /><path
       style="display:inline;fill:url(#radialGradient11);fill-opacity:1;stroke-width:0.105927;stroke-dasharray:none"
       d="m 91.062789,133.51822 3.556167,1.04315 -2.307363,3.99673 c 0.677186,1.21849 2.676974,1.408 3.125455,1.27171 1.385335,-0.40244 2.330895,-1.33235 3.294895,-2.26968 -0.28415,-0.0173 1.884747,-0.24576 3.089377,0.0985 l 8.65236,5.88467 c 0.46119,0.55913 0.66946,1.16294 0.0574,1.82525 -0.43821,0.60905 -0.99081,0.58663 -1.55187,0.41451 l -5.79173,-3.82326 c -0.17222,-0.062 -0.31334,0.006 -0.45616,0.11657 -0.0995,0.14621 -0.1183,0.29205 0.0106,0.43727 l 5.74295,3.88924 c 0.41928,0.54191 0.45054,1.13774 -0.003,1.74828 -0.36182,0.6451 -0.97858,0.68711 -1.73812,0.39137 l -4.97558,-3.32538 c -0.22358,-0.0525 -0.38924,-0.005 -0.47217,0.0965 -0.0835,0.15524 -0.0876,0.29341 -0.0602,0.42806 1.46759,1.02249 3.37144,2.05902 4.37794,3.0688 0.26313,0.52664 0.29888,1.03587 -0.0131,1.51848 -0.58919,0.83709 -1.18962,0.64161 -1.78964,0.48364 l -3.970647,-2.63371 -0.42455,0.12122 -0.0496,0.41971 c 1.154157,0.82062 2.718117,1.64841 3.478057,2.45273 0.14917,0.15754 0.1798,0.41788 0.11211,0.78484 -0.18234,0.21605 -0.40161,0.42157 -0.72367,0.59779 -0.35997,0.0704 -0.72463,0.1157 -1.1249,-0.0291 -0.63774,-0.29829 -1.08146,-0.44574 -2.305493,-1.42817 0.13206,-0.19538 0.248653,-0.35813 0.386693,-0.60367 0.200261,-0.52586 0.120861,-0.96935 0.01413,-1.21324 -0.102152,-0.31723 -0.472621,-0.53771 -0.738051,-0.7728 l -0.772933,-0.34427 c 0.549653,-2.38136 -1.25946,-2.67378 -2.460462,-2.72162 -0.122702,-1.76981 -1.962229,-2.28473 -3.133705,-1.89348 -1.06984,-1.08732 -1.567811,-1.82139 -2.865216,-1.18329 -0.451599,0.34299 -0.517918,0.28792 -0.871637,0.799 -1.029039,-0.3947 -1.842159,-0.48033 -2.657448,-1.01502 1.434799,-2.62102 3.692255,-6.07724 5.35907,-8.63137 z"
       id="path2310"
       sodipodi:nodetypes="cccccccccccccccccccccccccccccccccccccccc"
       transform="translate(9.3246374,7.4765138)" /></g><path
     style="fill:#008a00;fill-opacity:1;stroke-width:0.0470001"
     d="m 97.486553,144.44182 -1.852083,-0.74414 -5.064866,8.67617 1.56102,0.70743 z"
     id="path7" /><g
     aria-label="VI"
     transform="matrix(3.0726724,0,0,2.9693232,-425.46903,-572.13471)"
     id="text2129"
     style="text-align:center;white-space:pre;shape-inside:url(#rect2131);display:inline;opacity:0.5;fill:#4d4d4d;stroke-width:0.200315"><path
       d="m 175.38533,229.52433 -3.06,8.568 h -1.08 l -3.06,-8.568 h 1.128 l 1.932,5.496 q 0.192,0.528 0.324,0.996 0.132,0.456 0.216,0.876 0.084,-0.42 0.216,-0.888 0.132,-0.468 0.324,-1.008 l 1.92,-5.472 z"
       id="path1060" /><path
       d="m 178.96133,238.09233 h -3.096 v -0.624 l 1.008,-0.228 v -6.852 l -1.008,-0.24 v -0.624 h 3.096 v 0.624 l -1.008,0.24 v 6.852 l 1.008,0.228 z"
       id="path1057" /></g><g
     id="g1474"
     transform="matrix(0.61860655,0,0,0.61860655,81.316811,48.229263)"
     style="display:inline"><path
       id="path1466"
       style="stroke-width:0.0525951"
       d="m 39.738711,72.369567 2.811251,2.811252 -8.433755,8.433755 -2.811251,-2.811251 z" /><path
       id="path1463"
       style="stroke-width:0.0525951"
       d="M 39.738708,89.237075 42.54996,86.425823 34.116201,77.992065 31.30495,80.803317 Z" /><path
       id="path1460"
       style="stroke-width:0.0525951"
       d="m 45.361209,66.747058 -2.811252,2.811251 8.433758,8.433758 2.811252,-2.811251 z" /><path
       id="path1457"
       style="stroke-width:0.0525951"
       d="m 50.98372,72.369569 2.811254,2.811254 -8.433755,8.433755 -2.811254,-2.811254 z" /><path
       id="path1454"
       style="stroke-width:0.0525951"
       d="m 45.361216,77.992072 -2.811252,2.811252 8.433758,8.433757 2.811251,-2.811251 z" /><path
       id="path1451"
       style="stroke-width:0.0525951"
       d="m 50.983722,83.614578 2.811251,2.811252 -8.433755,8.433755 -2.811251,-2.811251 z" /></g><g
     aria-label="ENCUENTRO
EMPRESARIAL"
     transform="matrix(0.49910911,0,0,0.49910911,25.486485,-53.612805)"
     id="text3073"
     style="text-align:center;white-space:pre;shape-inside:url(#rect3075);stroke-width:1.00157"><path
       d="m 124.01436,350.15029 v -0.67431 h 0.53436 q 0.26717,0 0.45801,-0.12722 0.19084,-0.12723 0.19084,-0.63614 v -6.14506 q 0,-0.54708 -0.19084,-0.68703 -0.17812,-0.13995 -0.45801,-0.13995 h -0.53436 v -0.6743 h 7.0611 l 0.0509,2.34098 h -0.89059 l -0.0636,-0.59797 q -0.0509,-0.47074 -0.24173,-0.71247 -0.17812,-0.25446 -0.57252,-0.25446 h -2.13742 v 3.18068 h 3.01528 v 0.76336 h -3.01528 v 3.5878 h 2.54454 q 0.38168,0 0.5598,-0.26717 0.19084,-0.2799 0.25445,-0.69975 l 0.10179,-0.59797 h 0.87786 l -0.0891,2.34098 z"
       style="font-weight:bold;font-size:12.7227px;font-family:Constantia;-inkscape-font-specification:'Constantia, Bold'"
       id="path1062" /><path
       d="m 132.32228,350.15029 v -0.67431 h 0.53436 q 0.26717,0 0.45801,-0.13994 0.19084,-0.13995 0.19084,-0.68703 v -6.13234 q 0,-0.50891 -0.20356,-0.63614 -0.19084,-0.13995 -0.44529,-0.13995 h -0.53436 v -0.6743 h 2.82444 l 4.49112,6.34863 v -4.89824 q 0,-0.50891 -0.20357,-0.63614 -0.19084,-0.13995 -0.44529,-0.13995 h -0.53436 v -0.6743 h 3.32063 v 0.6743 h -0.53435 q -0.26718,0 -0.45802,0.13995 -0.19084,0.13995 -0.19084,0.68703 v 7.58273 h -1.17049 l -4.96185,-7.01021 v 5.50893 q 0,0.54708 0.19084,0.68703 0.19084,0.13994 0.45801,0.13994 h 0.53436 v 0.67431 z"
       style="font-weight:bold;font-size:12.7227px;font-family:Constantia;-inkscape-font-specification:'Constantia, Bold'"
       id="path1064" /><path
       d="m 147.09334,350.27751 q -1.47583,0 -2.45548,-0.58524 -0.97965,-0.58524 -1.46311,-1.6285 -0.48347,-1.05599 -0.48347,-2.46821 0,-1.37405 0.49619,-2.41731 0.49619,-1.05599 1.47583,-1.64123 0.97965,-0.59797 2.41732,-0.59797 1.46311,0 2.17558,0.43257 0.72519,0.41985 0.72519,1.04327 0,0.47074 -0.40712,0.7888 -0.40713,0.31807 -1.18322,0.31807 0,-0.41985 -0.12722,-0.82697 -0.12723,-0.40713 -0.43257,-0.67431 -0.30535,-0.26717 -0.8397,-0.26717 -1.20866,0 -1.69212,1.00509 -0.47074,0.99237 -0.47074,2.83716 0,1.84479 0.57252,2.76083 0.58524,0.90331 1.99746,0.90331 0.62342,0 1.06871,-0.17812 0.4453,-0.19084 0.75064,-0.47074 0.31807,-0.2799 0.53435,-0.5598 0.21629,0.17812 0.21629,0.54708 0,0.35623 -0.26718,0.75064 -0.26717,0.38168 -0.89059,0.66158 -0.62341,0.26717 -1.71756,0.26717 z"
       style="font-weight:bold;font-size:12.7227px;font-family:Constantia;-inkscape-font-specification:'Constantia, Bold'"
       id="path1066" /><path
       d="m 155.41398,350.27751 q -1.65396,0 -2.59544,-0.66158 -0.92875,-0.6743 -0.92875,-2.23919 v -4.86007 q 0,-0.50891 -0.20357,-0.63614 -0.19084,-0.13995 -0.44529,-0.13995 h -0.54708 v -0.6743 h 4.38934 v 0.6743 h -0.53436 q -0.26717,0 -0.45802,0.13995 -0.19084,0.13995 -0.19084,0.68703 v 4.91096 q 0,1.06871 0.50891,1.48856 0.52163,0.40712 1.38678,0.40712 0.85242,0 1.3486,-0.44529 0.49619,-0.45802 0.49619,-1.42494 v -4.9873 q 0,-0.50891 -0.19084,-0.63614 -0.19084,-0.13995 -0.45802,-0.13995 h -0.53435 v -0.6743 h 3.33334 v 0.6743 h -0.54707 q -0.26718,0 -0.45802,0.13995 -0.19084,0.13995 -0.19084,0.68703 v 4.96185 q 0,1.27227 -0.76336,2.01019 -0.75064,0.73791 -2.41731,0.73791 z"
       style="font-weight:bold;font-size:12.7227px;font-family:Constantia;-inkscape-font-specification:'Constantia, Bold'"
       id="path1068" /><path
       d="m 160.35038,350.15029 v -0.67431 h 0.53435 q 0.26718,0 0.45802,-0.12722 0.19084,-0.12723 0.19084,-0.63614 v -6.14506 q 0,-0.54708 -0.19084,-0.68703 -0.17812,-0.13995 -0.45802,-0.13995 h -0.53435 v -0.6743 h 7.0611 l 0.0509,2.34098 h -0.89059 l -0.0636,-0.59797 q -0.0509,-0.47074 -0.24174,-0.71247 -0.17811,-0.25446 -0.57252,-0.25446 h -2.13741 v 3.18068 h 3.01528 v 0.76336 h -3.01528 v 3.5878 h 2.54454 q 0.38168,0 0.5598,-0.26717 0.19084,-0.2799 0.25445,-0.69975 l 0.10178,-0.59797 h 0.87787 l -0.0891,2.34098 z"
       style="font-weight:bold;font-size:12.7227px;font-family:Constantia;-inkscape-font-specification:'Constantia, Bold'"
       id="path1070" /><path
       d="m 168.6583,350.15029 v -0.67431 h 0.53436 q 0.26717,0 0.45801,-0.13994 0.19084,-0.13995 0.19084,-0.68703 v -6.13234 q 0,-0.50891 -0.20356,-0.63614 -0.19084,-0.13995 -0.44529,-0.13995 h -0.53436 v -0.6743 h 2.82444 l 4.49111,6.34863 v -4.89824 q 0,-0.50891 -0.20356,-0.63614 -0.19084,-0.13995 -0.44529,-0.13995 h -0.53436 v -0.6743 h 3.32063 v 0.6743 h -0.53436 q -0.26717,0 -0.45801,0.13995 -0.19084,0.13995 -0.19084,0.68703 v 7.58273 h -1.17049 l -4.96185,-7.01021 v 5.50893 q 0,0.54708 0.19084,0.68703 0.19084,0.13994 0.45801,0.13994 h 0.53436 v 0.67431 z"
       style="font-weight:bold;font-size:12.7227px;font-family:Constantia;-inkscape-font-specification:'Constantia, Bold'"
       id="path1072" /><path
       d="m 180.28685,350.15029 v -0.67431 h 0.53436 q 0.27989,0 0.45801,-0.13994 0.19084,-0.13995 0.19084,-0.68703 v -6.80665 h -1.01781 q -0.57252,0 -0.78881,0.24174 -0.21629,0.24173 -0.26718,0.66158 l -0.0891,0.7888 h -0.85242 l 0.0636,-2.4682 h 7.92624 l 0.0636,2.4682 h -0.85242 l -0.0891,-0.7888 q -0.0509,-0.41985 -0.26717,-0.66158 -0.21629,-0.24174 -0.78881,-0.24174 h -1.01782 v 6.80665 q 0,0.54708 0.17812,0.68703 0.19084,0.13994 0.47074,0.13994 h 0.53435 v 0.67431 z"
       style="font-weight:bold;font-size:12.7227px;font-family:Constantia;-inkscape-font-specification:'Constantia, Bold'"
       id="path1074" /><path
       d="m 186.99171,350.15029 v -0.67431 h 0.53435 q 0.25446,0 0.4453,-0.12722 0.20356,-0.12723 0.20356,-0.63614 v -6.19595 q 0,-0.50891 -0.20356,-0.63614 -0.19084,-0.13995 -0.4453,-0.13995 h -0.53435 v -0.6743 h 4.09671 q 1.80662,0 2.64632,0.61069 0.8397,0.59797 0.8397,1.74301 0,0.6743 -0.25445,1.14504 -0.25446,0.47074 -0.64886,0.77609 -0.39441,0.30534 -0.82698,0.48346 l 1.514,2.60815 q 0.33079,0.54708 0.62342,0.80153 0.29262,0.24173 0.64885,0.24173 h 0.0509 v 0.67431 h -0.41984 q -0.76337,0 -1.27227,-0.0891 -0.50891,-0.0891 -0.85243,-0.33079 -0.33079,-0.25446 -0.59796,-0.7252 l -1.514,-2.79899 h -0.8397 v 2.50637 q 0,0.50891 0.19084,0.63614 0.20356,0.12722 0.45802,0.12722 h 0.54707 v 0.67431 z m 3.90587,-4.68196 q 0.87787,0 1.20866,-0.47074 0.33079,-0.47074 0.33079,-1.39949 0,-0.96693 -0.35624,-1.37405 -0.35624,-0.40713 -1.20866,-0.40713 h -0.68702 v 3.65141 z"
       style="font-weight:bold;font-size:12.7227px;font-family:Constantia;-inkscape-font-specification:'Constantia, Bold'"
       id="path1076" /><path
       d="m 200.38872,350.27751 q -1.45039,0 -2.40459,-0.58524 -0.9542,-0.58524 -1.43767,-1.64123 -0.47074,-1.05598 -0.47074,-2.4682 0,-1.41222 0.47074,-2.45548 0.48347,-1.04326 1.43767,-1.61579 0.96692,-0.58524 2.41731,-0.58524 1.37405,0 2.32826,0.58524 0.96692,0.57253 1.46311,1.62851 0.49618,1.04326 0.49618,2.45548 0,1.41222 -0.50891,2.46821 -0.49618,1.04326 -1.45038,1.6285 -0.95421,0.58524 -2.34098,0.58524 z m 0,-0.82697 q 1.19593,0 1.6794,-1.01782 0.48346,-1.01781 0.48346,-2.83716 0,-1.81934 -0.48346,-2.82444 -0.48347,-1.01781 -1.66668,-1.01781 -1.19593,0 -1.69212,1.01781 -0.49618,1.0051 -0.49618,2.82444 0,1.81935 0.49618,2.83716 0.49619,1.01782 1.6794,1.01782 z"
       style="font-weight:bold;font-size:12.7227px;font-family:Constantia;-inkscape-font-specification:'Constantia, Bold'"
       id="path1078" /><path
       d="m 117.57031,366.05367 v -0.6743 h 0.53435 q 0.26718,0 0.45802,-0.12723 0.19084,-0.12723 0.19084,-0.63614 v -6.14506 q 0,-0.54708 -0.19084,-0.68703 -0.17812,-0.13995 -0.45802,-0.13995 h -0.53435 v -0.6743 h 7.0611 l 0.0509,2.34098 h -0.89059 l -0.0636,-0.59797 q -0.0509,-0.47074 -0.24173,-0.71247 -0.17812,-0.25445 -0.57252,-0.25445 h -2.13742 v 3.18067 h 3.01528 v 0.76336 h -3.01528 v 3.5878 h 2.54454 q 0.38168,0 0.5598,-0.26717 0.19084,-0.2799 0.25445,-0.69975 l 0.10179,-0.59797 h 0.87786 l -0.0891,2.34098 z"
       style="font-weight:bold;font-size:12.7227px;font-family:Constantia;-inkscape-font-specification:'Constantia, Bold'"
       id="path1080" /><path
       d="m 125.87823,366.05367 v -0.6743 h 0.53436 q 0.26717,0 0.45801,-0.12723 0.19084,-0.12723 0.19084,-0.63614 v -6.19595 q 0,-0.50891 -0.19084,-0.63614 -0.19084,-0.13995 -0.45801,-0.13995 h -0.53436 v -0.6743 h 3.66414 l 2.11197,6.14507 2.02291,-6.14507 h 3.60052 v 0.6743 h -0.53435 q -0.2799,0 -0.47074,0.13995 -0.17812,0.13995 -0.17812,0.68703 v 6.08145 q 0,0.54708 0.17812,0.68703 0.19084,0.13995 0.47074,0.13995 h 0.53435 v 0.6743 h -4.07126 v -0.6743 h 0.12722 q 0.40713,0 0.59797,-0.11451 0.20356,-0.12723 0.20356,-0.59797 v -6.43768 l -2.56998,7.82446 h -0.86514 l -2.68449,-7.82446 v 6.32318 q 0,0.54708 0.24173,0.68703 0.25445,0.13995 0.69975,0.13995 h 0.0763 v 0.6743 z"
       style="font-weight:bold;font-size:12.7227px;font-family:Constantia;-inkscape-font-specification:'Constantia, Bold'"
       id="path1082" /><path
       d="m 137.99024,366.05367 v -0.6743 h 0.53435 q 0.2799,0 0.45802,-0.13995 0.19084,-0.13995 0.19084,-0.68703 v -6.13234 q 0,-0.50891 -0.19084,-0.63614 -0.19084,-0.13995 -0.45802,-0.13995 h -0.53435 v -0.6743 h 3.90587 q 1.76845,0 2.62087,0.7252 0.85242,0.72519 0.85242,1.97201 0,0.76337 -0.36895,1.42495 -0.35624,0.66158 -1.18321,1.08143 -0.82698,0.40712 -2.20103,0.40712 h -0.43257 v 2.03563 q 0,0.50891 0.20356,0.63614 0.20356,0.12723 0.47074,0.12723 h 0.77608 v 0.6743 z m 3.49874,-4.21121 q 0.94148,0 1.33588,-0.48347 0.40713,-0.49618 0.40713,-1.64123 0,-1.01781 -0.35623,-1.50127 -0.34352,-0.49619 -1.19594,-0.49619 h -0.49618 v 4.12216 z"
       style="font-weight:bold;font-size:12.7227px;font-family:Constantia;-inkscape-font-specification:'Constantia, Bold'"
       id="path1084" /><path
       d="m 146.10733,366.05367 v -0.6743 h 0.53435 q 0.25446,0 0.4453,-0.12723 0.20356,-0.12723 0.20356,-0.63614 v -6.19595 q 0,-0.50891 -0.20356,-0.63614 -0.19084,-0.13995 -0.4453,-0.13995 h -0.53435 v -0.6743 h 4.09671 q 1.80662,0 2.64632,0.61069 0.8397,0.59797 0.8397,1.74301 0,0.6743 -0.25446,1.14504 -0.25445,0.47074 -0.64885,0.77609 -0.39441,0.30534 -0.82698,0.48346 l 1.514,2.60815 q 0.33079,0.54708 0.62341,0.80153 0.29263,0.24174 0.64886,0.24174 h 0.0509 v 0.6743 h -0.41985 q -0.76336,0 -1.27227,-0.0891 -0.5089,-0.0891 -0.85242,-0.33079 -0.33079,-0.25445 -0.59796,-0.72519 l -1.51401,-2.799 h -0.83969 v 2.50637 q 0,0.50891 0.19084,0.63614 0.20356,0.12723 0.45801,0.12723 h 0.54708 v 0.6743 z m 3.90587,-4.68195 q 0.87786,0 1.20865,-0.47074 0.33079,-0.47074 0.33079,-1.3995 0,-0.96693 -0.35623,-1.37405 -0.35624,-0.40713 -1.20866,-0.40713 h -0.68702 v 3.65142 z"
       style="font-weight:bold;font-size:12.7227px;font-family:Constantia;-inkscape-font-specification:'Constantia, Bold'"
       id="path1086" /><path
       d="m 155.10229,366.05367 v -0.6743 h 0.53435 q 0.26718,0 0.45802,-0.12723 0.19084,-0.12723 0.19084,-0.63614 v -6.14506 q 0,-0.54708 -0.19084,-0.68703 -0.17812,-0.13995 -0.45802,-0.13995 h -0.53435 v -0.6743 h 7.06109 l 0.0509,2.34098 h -0.89059 l -0.0636,-0.59797 q -0.0509,-0.47074 -0.24173,-0.71247 -0.17812,-0.25445 -0.57252,-0.25445 h -2.13741 v 3.18067 h 3.01528 v 0.76336 h -3.01528 v 3.5878 h 2.54454 q 0.38168,0 0.5598,-0.26717 0.19084,-0.2799 0.25445,-0.69975 l 0.10178,-0.59797 h 0.87787 l -0.0891,2.34098 z"
       style="font-weight:bold;font-size:12.7227px;font-family:Constantia;-inkscape-font-specification:'Constantia, Bold'"
       id="path1088" /><path
       d="m 166.41277,366.1809 q -1.13232,0 -1.79391,-0.26718 -0.64885,-0.2799 -0.91603,-0.68703 -0.26718,-0.41985 -0.26718,-0.82697 0,-0.43257 0.20357,-0.68703 0.20356,-0.26717 0.53435,-0.38168 0.33079,-0.1145 0.69975,-0.1145 0,1.08143 0.48346,1.64123 0.49619,0.55979 1.25955,0.55979 0.75064,0 1.15776,-0.3944 0.41985,-0.3944 0.41985,-0.97965 0,-0.64886 -0.53435,-1.04326 -0.52163,-0.3944 -1.59034,-0.82697 -0.89059,-0.36896 -1.41222,-0.76337 -0.52163,-0.40712 -0.75064,-0.89059 -0.21628,-0.49618 -0.21628,-1.11959 0,-0.77609 0.40712,-1.34861 0.40713,-0.57252 1.10688,-0.89059 0.71247,-0.31807 1.60306,-0.31807 1.3995,0 2.04835,0.43258 0.66158,0.41985 0.66158,1.04326 0,0.44529 -0.3944,0.75064 -0.38168,0.30534 -1.17049,0.30534 0,-0.35623 -0.13995,-0.76336 -0.12722,-0.40713 -0.41985,-0.69975 -0.29262,-0.29262 -0.7888,-0.29262 -0.50891,0 -0.89059,0.30534 -0.36896,0.29263 -0.36896,0.86515 0,0.35623 0.16539,0.66158 0.1654,0.30534 0.62342,0.61069 0.45801,0.29262 1.31043,0.63613 1.31044,0.53436 1.87024,1.14505 0.5598,0.61069 0.5598,1.55216 0,0.81426 -0.43257,1.45039 -0.41985,0.62341 -1.19594,0.97965 -0.77608,0.35624 -1.83206,0.35624 z"
       style="font-weight:bold;font-size:12.7227px;font-family:Constantia;-inkscape-font-specification:'Constantia, Bold'"
       id="path1090" /><path
       d="m 170.30591,366.05367 v -0.6743 h 0.15267 q 0.34351,0 0.57252,-0.17812 0.24173,-0.17812 0.4453,-0.75064 l 2.76082,-7.48095 h 1.74301 l 2.65905,7.49367 q 0.19084,0.53436 0.41985,0.7252 0.24173,0.19084 0.54707,0.19084 h 0.22901 v 0.6743 h -4.19849 v -0.6743 h 0.49619 q 0.19084,0 0.36895,-0.11451 0.17812,-0.1145 0.17812,-0.38168 0,-0.15267 -0.0382,-0.29262 -0.0382,-0.15267 -0.0763,-0.25446 l -0.4453,-1.27227 h -3.09161 l -0.36896,1.09416 q -0.0509,0.15267 -0.10178,0.36896 -0.0509,0.20356 -0.0509,0.35623 0,0.24173 0.17811,0.36896 0.17812,0.12723 0.39441,0.12723 h 0.53435 v 0.6743 z m 2.98983,-3.76592 h 2.56999 l -0.6743,-2.08652 q -0.12723,-0.43257 -0.29263,-0.96693 -0.15267,-0.53435 -0.25445,-0.97965 -0.1145,0.40713 -0.2799,0.92876 -0.16539,0.50891 -0.31807,0.9542 z"
       style="font-weight:bold;font-size:12.7227px;font-family:Constantia;-inkscape-font-specification:'Constantia, Bold'"
       id="path1092" /><path
       d="m 180.19145,366.05367 v -0.6743 h 0.53435 q 0.25446,0 0.4453,-0.12723 0.20356,-0.12723 0.20356,-0.63614 v -6.19595 q 0,-0.50891 -0.20356,-0.63614 -0.19084,-0.13995 -0.4453,-0.13995 h -0.53435 v -0.6743 h 4.09671 q 1.80662,0 2.64632,0.61069 0.8397,0.59797 0.8397,1.74301 0,0.6743 -0.25445,1.14504 -0.25446,0.47074 -0.64886,0.77609 -0.39441,0.30534 -0.82698,0.48346 l 1.514,2.60815 q 0.33079,0.54708 0.62342,0.80153 0.29262,0.24174 0.64885,0.24174 h 0.0509 v 0.6743 h -0.41984 q -0.76337,0 -1.27227,-0.0891 -0.50891,-0.0891 -0.85243,-0.33079 -0.33079,-0.25445 -0.59796,-0.72519 l -1.514,-2.799 h -0.8397 v 2.50637 q 0,0.50891 0.19084,0.63614 0.20356,0.12723 0.45802,0.12723 h 0.54707 v 0.6743 z m 3.90587,-4.68195 q 0.87787,0 1.20866,-0.47074 0.33079,-0.47074 0.33079,-1.3995 0,-0.96693 -0.35624,-1.37405 -0.35624,-0.40713 -1.20866,-0.40713 h -0.68702 v 3.65142 z"
       style="font-weight:bold;font-size:12.7227px;font-family:Constantia;-inkscape-font-specification:'Constantia, Bold'"
       id="path1094" /><path
       d="m 189.18641,366.05367 v -0.6743 h 0.53435 q 0.2799,0 0.45802,-0.13995 0.19084,-0.13995 0.19084,-0.68703 v -6.08145 q 0,-0.54708 -0.19084,-0.68703 -0.17812,-0.13995 -0.45802,-0.13995 h -0.53435 v -0.6743 h 4.38933 v 0.6743 h -0.53435 q -0.2799,0 -0.47074,0.13995 -0.17812,0.13995 -0.17812,0.68703 v 6.08145 q 0,0.54708 0.17812,0.68703 0.19084,0.13995 0.47074,0.13995 h 0.53435 v 0.6743 z"
       style="font-weight:bold;font-size:12.7227px;font-family:Constantia;-inkscape-font-specification:'Constantia, Bold'"
       id="path1096" /><path
       d="m 193.98285,366.05367 v -0.6743 h 0.15268 q 0.34351,0 0.57252,-0.17812 0.24173,-0.17812 0.44529,-0.75064 l 2.76083,-7.48095 h 1.74301 l 2.65904,7.49367 q 0.19084,0.53436 0.41985,0.7252 0.24173,0.19084 0.54708,0.19084 h 0.22901 v 0.6743 h -4.19849 v -0.6743 h 0.49618 q 0.19084,0 0.36896,-0.11451 0.17812,-0.1145 0.17812,-0.38168 0,-0.15267 -0.0382,-0.29262 -0.0382,-0.15267 -0.0763,-0.25446 l -0.44529,-1.27227 h -3.09162 l -0.36896,1.09416 q -0.0509,0.15267 -0.10178,0.36896 -0.0509,0.20356 -0.0509,0.35623 0,0.24173 0.17812,0.36896 0.17812,0.12723 0.3944,0.12723 h 0.53436 v 0.6743 z m 2.98984,-3.76592 h 2.56998 l -0.6743,-2.08652 q -0.12723,-0.43257 -0.29262,-0.96693 -0.15267,-0.53435 -0.25446,-0.97965 -0.1145,0.40713 -0.27989,0.92876 -0.1654,0.50891 -0.31807,0.9542 z"
       style="font-weight:bold;font-size:12.7227px;font-family:Constantia;-inkscape-font-specification:'Constantia, Bold'"
       id="path1098" /><path
       d="m 203.8684,366.05367 v -0.6743 h 0.53435 q 0.2799,0 0.45802,-0.13995 0.19084,-0.13995 0.19084,-0.68703 v -6.08145 q 0,-0.54708 -0.19084,-0.68703 -0.17812,-0.13995 -0.45802,-0.13995 h -0.53435 v -0.6743 h 4.38933 v 0.6743 h -0.53435 q -0.26718,0 -0.45802,0.13995 -0.19084,0.12723 -0.19084,0.63614 v 6.85753 h 2.36642 q 0.4453,0 0.68703,-0.27989 0.25445,-0.29263 0.36896,-0.82698 l 0.20356,-0.9542 h 0.71247 l -0.0891,2.83716 z"
       style="font-weight:bold;font-size:12.7227px;font-family:Constantia;-inkscape-font-specification:'Constantia, Bold'"
       id="path1100" /></g></svg>
